# xmcd
#
# Track frame offsets: 
#        150
#        6152
#        13066
#        27630
#        40818
#        54477
#        66176
#        77548
#        88437
#        99581
#        110427
#        122453
#        132117
#        134621
#        140155
#        147200
#        161687
#        174519
#        188628
#        200513
#        211836
#        222961
#        234467
#        246385
#        258314
#        267962
#
# Disc length: 3601 seconds
#
# Revision: 0
# Processed by: cddbd v1.5.2PL0 Copyright (c) Steve Scherf et al.
# Submitted via: ExactAudioCopy v0.95b3
#
DISCID=800e0f1a
DTITLE=The Beatles  - Live 10 - Far East Men (Purple Chick) - Disc 2
DYEAR=1900
DGENRE=
TTITLE0=intro (Tokyo 1966 1)
TTITLE1=Rock and Roll Music (Tokyo 1966 1)
TTITLE2=She's A Woman (Tokyo 1966 1)
TTITLE3=If I Needed Someone (Tokyo 1966 1)
TTITLE4=Day Tripper (Tokyo 1966 1)
TTITLE5=Baby's In Black (Tokyo 1966 1)
TTITLE6=I Feel Fine (Tokyo 1966 1)
TTITLE7=Yesterday (Tokyo 1966 1)
TTITLE8=I Wanna Be Your Man (Tokyo 1966 1)
TTITLE9=Nowhere Man (Tokyo 1966 1)
TTITLE10=Paperback Writer (Tokyo 1966 1)
TTITLE11=I'm Down (Tokyo 1966 1)
TTITLE12=outro (Tokyo 1966 1)
TTITLE13=intro (Tokyo 1966 2)
TTITLE14=Rock and Roll Music (Tokyo 1966 2)
TTITLE15=She's A Woman (Tokyo 1966 2)
TTITLE16=If I Needed Someone (Tokyo 1966 2)
TTITLE17=Day Tripper (Tokyo 1966 2)
TTITLE18=Baby's In Black (Tokyo 1966 2)
TTITLE19=I Feel Fine (Tokyo 1966 2)
TTITLE20=Yesterday (Tokyo 1966 2)
TTITLE21=I Wanna Be Your Man (Tokyo 1966 2)
TTITLE22=Nowhere Man (Tokyo 1966 2)
TTITLE23=Paperback Writer (Tokyo 1966 2)
TTITLE24=I'm Down (Tokyo 1966 2)
TTITLE25=outro (Tokyo 1966 2)
EXTD=
EXTT0=
EXTT1=
EXTT2=
EXTT3=
EXTT4=
EXTT5=
EXTT6=
EXTT7=
EXTT8=
EXTT9=
EXTT10=
EXTT11=
EXTT12=
EXTT13=
EXTT14=
EXTT15=
EXTT16=
EXTT17=
EXTT18=
EXTT19=
EXTT20=
EXTT21=
EXTT22=
EXTT23=
EXTT24=
EXTT25=
PLAYORDER=
